solid CATIA STL
  facet normal  0.000000e+000  0.000000e+000  9.999999e-001
    outer loop
      vertex -9.654040e+003 -4.815000e+003  2.200000e+003
      vertex -9.654040e+003 -4.865000e+003  2.200000e+003
      vertex -7.245220e+003 -4.815000e+003  2.200000e+003
    endloop
  endfacet
  facet normal  0.000000e+000  0.000000e+000  9.999999e-001
    outer loop
      vertex -7.245220e+003 -4.815000e+003  2.200000e+003
      vertex -9.654040e+003 -4.865000e+003  2.200000e+003
      vertex -7.245220e+003 -4.865000e+003  2.200000e+003
    endloop
  endfacet
  facet normal  -0.000000e+000  0.000000e+000 -9.999999e-001
    outer loop
      vertex -9.654040e+003 -4.815000e+003  0.000000e+000
      vertex -7.245220e+003 -4.815000e+003  0.000000e+000
      vertex -9.654040e+003 -4.865000e+003  0.000000e+000
    endloop
  endfacet
  facet normal  0.000000e+000  0.000000e+000 -9.999999e-001
    outer loop
      vertex -9.654040e+003 -4.865000e+003  0.000000e+000
      vertex -7.245220e+003 -4.815000e+003  0.000000e+000
      vertex -7.245220e+003 -4.865000e+003  0.000000e+000
    endloop
  endfacet
  facet normal -1.000000e+000  0.000000e+000  0.000000e+000
    outer loop
      vertex -9.654040e+003 -4.815000e+003  0.000000e+000
      vertex -9.654040e+003 -4.865000e+003  0.000000e+000
      vertex -9.654040e+003 -4.815000e+003  2.200000e+003
    endloop
  endfacet
  facet normal -1.000000e+000  -0.000000e+000  0.000000e+000
    outer loop
      vertex -9.654040e+003 -4.815000e+003  2.200000e+003
      vertex -9.654040e+003 -4.865000e+003  0.000000e+000
      vertex -9.654040e+003 -4.865000e+003  2.200000e+003
    endloop
  endfacet
  facet normal  0.000000e+000  1.000000e+000  0.000000e+000
    outer loop
      vertex -9.654040e+003 -4.815000e+003  2.200000e+003
      vertex -7.245220e+003 -4.815000e+003  2.200000e+003
      vertex -9.654040e+003 -4.815000e+003  0.000000e+000
    endloop
  endfacet
  facet normal  0.000000e+000  1.000000e+000  0.000000e+000
    outer loop
      vertex -9.654040e+003 -4.815000e+003  0.000000e+000
      vertex -7.245220e+003 -4.815000e+003  2.200000e+003
      vertex -7.245220e+003 -4.815000e+003  0.000000e+000
    endloop
  endfacet
  facet normal  1.000000e+000  0.000000e+000  0.000000e+000
    outer loop
      vertex -7.245220e+003 -4.865000e+003  0.000000e+000
      vertex -7.245220e+003 -4.815000e+003  0.000000e+000
      vertex -7.245220e+003 -4.865000e+003  2.200000e+003
    endloop
  endfacet
  facet normal  1.000000e+000  -0.000000e+000  0.000000e+000
    outer loop
      vertex -7.245220e+003 -4.865000e+003  2.200000e+003
      vertex -7.245220e+003 -4.815000e+003  0.000000e+000
      vertex -7.245220e+003 -4.815000e+003  2.200000e+003
    endloop
  endfacet
  facet normal  0.000000e+000 -1.000000e+000  0.000000e+000
    outer loop
      vertex -9.654040e+003 -4.865000e+003  2.200000e+003
      vertex -9.654040e+003 -4.865000e+003  0.000000e+000
      vertex -7.245220e+003 -4.865000e+003  2.200000e+003
    endloop
  endfacet
  facet normal  0.000000e+000 -1.000000e+000  -0.000000e+000
    outer loop
      vertex -7.245220e+003 -4.865000e+003  2.200000e+003
      vertex -9.654040e+003 -4.865000e+003  0.000000e+000
      vertex -7.245220e+003 -4.865000e+003  0.000000e+000
    endloop
  endfacet
  facet normal -1.000000e+000  0.000000e+000  0.000000e+000
    outer loop
      vertex  1.558801e+003  5.400000e+003  2.200000e+003
      vertex  1.558801e+003  5.400000e+003  0.000000e+000
      vertex  1.558801e+003 -7.000000e+002  0.000000e+000
    endloop
  endfacet
  facet normal -1.000000e+000  0.000000e+000  0.000000e+000
    outer loop
      vertex  1.558801e+003  5.400000e+003  2.200000e+003
      vertex  1.558801e+003 -7.000000e+002  0.000000e+000
      vertex  1.558801e+003 -7.000000e+002  8.000000e+002
    endloop
  endfacet
  facet normal -1.000000e+000  0.000000e+000  0.000000e+000
    outer loop
      vertex  1.558801e+003  5.400000e+003  2.200000e+003
      vertex  1.558801e+003 -7.000000e+002  8.000000e+002
      vertex  1.558801e+003 -1.760000e+003  8.000000e+002
    endloop
  endfacet
  facet normal -1.000000e+000  0.000000e+000  0.000000e+000
    outer loop
      vertex  1.558801e+003  5.400000e+003  2.200000e+003
      vertex  1.558801e+003 -1.760000e+003  8.000000e+002
      vertex  1.558801e+003 -4.815000e+003  2.200000e+003
    endloop
  endfacet
  facet normal -1.000000e+000  0.000000e+000  0.000000e+000
    outer loop
      vertex  1.558801e+003 -1.760000e+003  0.000000e+000
      vertex  1.558801e+003 -4.815000e+003  0.000000e+000
      vertex  1.558801e+003 -1.760000e+003  8.000000e+002
    endloop
  endfacet
  facet normal -1.000000e+000  -0.000000e+000  0.000000e+000
    outer loop
      vertex  1.558801e+003 -1.760000e+003  8.000000e+002
      vertex  1.558801e+003 -4.815000e+003  0.000000e+000
      vertex  1.558801e+003 -4.815000e+003  2.200000e+003
    endloop
  endfacet
  facet normal  0.000000e+000  1.000000e+000  0.000000e+000
    outer loop
      vertex  1.558801e+003 -1.760000e+003  0.000000e+000
      vertex  1.558801e+003 -1.760000e+003  8.000000e+002
      vertex  1.608801e+003 -1.760000e+003  0.000000e+000
    endloop
  endfacet
  facet normal  0.000000e+000  1.000000e+000  -0.000000e+000
    outer loop
      vertex  1.608801e+003 -1.760000e+003  0.000000e+000
      vertex  1.558801e+003 -1.760000e+003  8.000000e+002
      vertex  1.608801e+003 -1.760000e+003  8.000000e+002
    endloop
  endfacet
  facet normal  0.000000e+000  0.000000e+000 -1.000000e+000
    outer loop
      vertex  1.608801e+003 -1.760000e+003  0.000000e+000
      vertex  1.608801e+003 -4.865000e+003  0.000000e+000
      vertex  1.558801e+003 -1.760000e+003  0.000000e+000
    endloop
  endfacet
  facet normal  0.000000e+000  0.000000e+000 -1.000000e+000
    outer loop
      vertex  1.558801e+003 -1.760000e+003  0.000000e+000
      vertex  1.608801e+003 -4.865000e+003  0.000000e+000
      vertex  1.558801e+003 -4.815000e+003  0.000000e+000
    endloop
  endfacet
  facet normal  0.000000e+000  0.000000e+000 -1.000000e+000
    outer loop
      vertex  1.608801e+003 -4.865000e+003  0.000000e+000
      vertex -5.245220e+003 -4.865000e+003  0.000000e+000
      vertex  1.558801e+003 -4.815000e+003  0.000000e+000
    endloop
  endfacet
  facet normal  -0.000000e+000  0.000000e+000 -1.000000e+000
    outer loop
      vertex  1.558801e+003 -4.815000e+003  0.000000e+000
      vertex -5.245220e+003 -4.865000e+003  0.000000e+000
      vertex -5.245220e+003 -4.815000e+003  0.000000e+000
    endloop
  endfacet
  facet normal  0.000000e+000 -1.000000e+000  0.000000e+000
    outer loop
      vertex -5.245220e+003 -4.865000e+003  2.200000e+003
      vertex -5.245220e+003 -4.865000e+003  0.000000e+000
      vertex  1.608801e+003 -4.865000e+003  2.200000e+003
    endloop
  endfacet
  facet normal  0.000000e+000 -1.000000e+000  -0.000000e+000
    outer loop
      vertex  1.608801e+003 -4.865000e+003  2.200000e+003
      vertex -5.245220e+003 -4.865000e+003  0.000000e+000
      vertex  1.608801e+003 -4.865000e+003  0.000000e+000
    endloop
  endfacet
  facet normal  -0.000000e+000  0.000000e+000 -1.000000e+000
    outer loop
      vertex  1.558801e+003  5.400000e+003  0.000000e+000
      vertex  1.608801e+003  5.400000e+003  0.000000e+000
      vertex  1.558801e+003 -7.000000e+002  0.000000e+000
    endloop
  endfacet
  facet normal  0.000000e+000  0.000000e+000 -1.000000e+000
    outer loop
      vertex  1.558801e+003 -7.000000e+002  0.000000e+000
      vertex  1.608801e+003  5.400000e+003  0.000000e+000
      vertex  1.608801e+003 -7.000000e+002  0.000000e+000
    endloop
  endfacet
  facet normal -1.000000e+000  0.000000e+000  0.000000e+000
    outer loop
      vertex -5.245220e+003 -4.815000e+003  0.000000e+000
      vertex -5.245220e+003 -4.865000e+003  0.000000e+000
      vertex -5.245220e+003 -4.815000e+003  2.200000e+003
    endloop
  endfacet
  facet normal -1.000000e+000  -0.000000e+000  0.000000e+000
    outer loop
      vertex -5.245220e+003 -4.815000e+003  2.200000e+003
      vertex -5.245220e+003 -4.865000e+003  0.000000e+000
      vertex -5.245220e+003 -4.865000e+003  2.200000e+003
    endloop
  endfacet
  facet normal  0.000000e+000  1.000000e+000  0.000000e+000
    outer loop
      vertex -5.245220e+003 -4.815000e+003  2.200000e+003
      vertex  1.558801e+003 -4.815000e+003  2.200000e+003
      vertex -5.245220e+003 -4.815000e+003  0.000000e+000
    endloop
  endfacet
  facet normal  0.000000e+000  1.000000e+000  0.000000e+000
    outer loop
      vertex -5.245220e+003 -4.815000e+003  0.000000e+000
      vertex  1.558801e+003 -4.815000e+003  2.200000e+003
      vertex  1.558801e+003 -4.815000e+003  0.000000e+000
    endloop
  endfacet
  facet normal  0.000000e+000  1.000000e+000  -0.000000e+000
    outer loop
      vertex  1.608801e+003  5.400000e+003  2.200000e+003
      vertex  1.608801e+003  5.400000e+003  0.000000e+000
      vertex  1.558801e+003  5.400000e+003  2.200000e+003
    endloop
  endfacet
  facet normal  0.000000e+000  1.000000e+000  0.000000e+000
    outer loop
      vertex  1.558801e+003  5.400000e+003  2.200000e+003
      vertex  1.608801e+003  5.400000e+003  0.000000e+000
      vertex  1.558801e+003  5.400000e+003  0.000000e+000
    endloop
  endfacet
  facet normal  -0.000000e+000  0.000000e+000  1.000000e+000
    outer loop
      vertex  1.608801e+003  5.400000e+003  2.200000e+003
      vertex  1.558801e+003  5.400000e+003  2.200000e+003
      vertex  1.608801e+003 -4.865000e+003  2.200000e+003
    endloop
  endfacet
  facet normal  0.000000e+000  0.000000e+000  9.999999e-001
    outer loop
      vertex  1.608801e+003 -4.865000e+003  2.200000e+003
      vertex  1.558801e+003  5.400000e+003  2.200000e+003
      vertex  1.558801e+003 -4.815000e+003  2.200000e+003
    endloop
  endfacet
  facet normal  0.000000e+000  0.000000e+000  1.000000e+000
    outer loop
      vertex  1.608801e+003 -4.865000e+003  2.200000e+003
      vertex  1.558801e+003 -4.815000e+003  2.200000e+003
      vertex -5.245220e+003 -4.865000e+003  2.200000e+003
    endloop
  endfacet
  facet normal  0.000000e+000  0.000000e+000  1.000000e+000
    outer loop
      vertex -5.245220e+003 -4.865000e+003  2.200000e+003
      vertex  1.558801e+003 -4.815000e+003  2.200000e+003
      vertex -5.245220e+003 -4.815000e+003  2.200000e+003
    endloop
  endfacet
  facet normal  0.000000e+000 -1.000000e+000  0.000000e+000
    outer loop
      vertex  1.558801e+003 -7.000000e+002  8.000000e+002
      vertex  1.558801e+003 -7.000000e+002  0.000000e+000
      vertex  1.608801e+003 -7.000000e+002  8.000000e+002
    endloop
  endfacet
  facet normal  0.000000e+000 -1.000000e+000  -0.000000e+000
    outer loop
      vertex  1.608801e+003 -7.000000e+002  8.000000e+002
      vertex  1.558801e+003 -7.000000e+002  0.000000e+000
      vertex  1.608801e+003 -7.000000e+002  0.000000e+000
    endloop
  endfacet
  facet normal  1.000000e+000  -0.000000e+000  0.000000e+000
    outer loop
      vertex  1.608801e+003  5.400000e+003  2.200000e+003
      vertex  1.608801e+003 -4.865000e+003  2.200000e+003
      vertex  1.608801e+003 -1.760000e+003  8.000000e+002
    endloop
  endfacet
  facet normal  1.000000e+000  0.000000e+000  0.000000e+000
    outer loop
      vertex  1.608801e+003  5.400000e+003  2.200000e+003
      vertex  1.608801e+003 -1.760000e+003  8.000000e+002
      vertex  1.608801e+003 -7.000000e+002  8.000000e+002
    endloop
  endfacet
  facet normal  1.000000e+000  -0.000000e+000  0.000000e+000
    outer loop
      vertex  1.608801e+003  5.400000e+003  2.200000e+003
      vertex  1.608801e+003 -7.000000e+002  8.000000e+002
      vertex  1.608801e+003 -7.000000e+002  0.000000e+000
    endloop
  endfacet
  facet normal  1.000000e+000  0.000000e+000  0.000000e+000
    outer loop
      vertex  1.608801e+003  5.400000e+003  2.200000e+003
      vertex  1.608801e+003 -7.000000e+002  0.000000e+000
      vertex  1.608801e+003  5.400000e+003  0.000000e+000
    endloop
  endfacet
  facet normal  1.000000e+000  0.000000e+000  0.000000e+000
    outer loop
      vertex  1.608801e+003 -1.760000e+003  0.000000e+000
      vertex  1.608801e+003 -1.760000e+003  8.000000e+002
      vertex  1.608801e+003 -4.865000e+003  0.000000e+000
    endloop
  endfacet
  facet normal  1.000000e+000  0.000000e+000  0.000000e+000
    outer loop
      vertex  1.608801e+003 -4.865000e+003  0.000000e+000
      vertex  1.608801e+003 -1.760000e+003  8.000000e+002
      vertex  1.608801e+003 -4.865000e+003  2.200000e+003
    endloop
  endfacet
  facet normal  -0.000000e+000  0.000000e+000 -1.000000e+000
    outer loop
      vertex  1.558801e+003 -7.000000e+002  8.000000e+002
      vertex  1.608801e+003 -7.000000e+002  8.000000e+002
      vertex  1.558801e+003 -1.760000e+003  8.000000e+002
    endloop
  endfacet
  facet normal  0.000000e+000  0.000000e+000 -1.000000e+000
    outer loop
      vertex  1.558801e+003 -1.760000e+003  8.000000e+002
      vertex  1.608801e+003 -7.000000e+002  8.000000e+002
      vertex  1.608801e+003 -1.760000e+003  8.000000e+002
    endloop
  endfacet
  facet normal  0.000000e+000 -1.000000e+000  0.000000e+000
    outer loop
      vertex -1.029120e+004 -1.439976e+003  8.000000e+002
      vertex -1.024120e+004 -1.439976e+003  8.000000e+002
      vertex -1.029120e+004 -1.439976e+003  2.200000e+003
    endloop
  endfacet
  facet normal  0.000000e+000 -1.000000e+000  0.000000e+000
    outer loop
      vertex -1.029120e+004 -1.439976e+003  2.200000e+003
      vertex -1.024120e+004 -1.439976e+003  8.000000e+002
      vertex -1.024120e+004 -1.439976e+003  2.200000e+003
    endloop
  endfacet
  facet normal  0.000000e+000  1.000000e+000  -0.000000e+000
    outer loop
      vertex -1.024120e+004  5.400000e+003  2.200000e+003
      vertex -1.024120e+004  5.400000e+003  0.000000e+000
      vertex -1.029120e+004  5.400000e+003  2.200000e+003
    endloop
  endfacet
  facet normal  0.000000e+000  1.000000e+000  0.000000e+000
    outer loop
      vertex -1.029120e+004  5.400000e+003  2.200000e+003
      vertex -1.024120e+004  5.400000e+003  0.000000e+000
      vertex -1.029120e+004  5.400000e+003  0.000000e+000
    endloop
  endfacet
  facet normal  0.000000e+000  0.000000e+000  1.000000e+000
    outer loop
      vertex -1.029120e+004  5.400000e+003  2.200000e+003
      vertex -1.029120e+004 -1.439976e+003  2.200000e+003
      vertex -1.024120e+004  5.400000e+003  2.200000e+003
    endloop
  endfacet
  facet normal  0.000000e+000  0.000000e+000  1.000000e+000
    outer loop
      vertex -1.024120e+004  5.400000e+003  2.200000e+003
      vertex -1.029120e+004 -1.439976e+003  2.200000e+003
      vertex -1.024120e+004 -1.439976e+003  2.200000e+003
    endloop
  endfacet
  facet normal  -0.000000e+000  0.000000e+000 -1.000000e+000
    outer loop
      vertex -1.029120e+004  5.400000e+003  0.000000e+000
      vertex -1.024120e+004  5.400000e+003  0.000000e+000
      vertex -1.029120e+004 -7.000000e+002  0.000000e+000
    endloop
  endfacet
  facet normal  0.000000e+000  0.000000e+000 -1.000000e+000
    outer loop
      vertex -1.029120e+004 -7.000000e+002  0.000000e+000
      vertex -1.024120e+004  5.400000e+003  0.000000e+000
      vertex -1.024120e+004 -7.000000e+002  0.000000e+000
    endloop
  endfacet
  facet normal  1.000000e+000  0.000000e+000  0.000000e+000
    outer loop
      vertex -1.024120e+004 -1.439976e+003  2.200000e+003
      vertex -1.024120e+004 -1.439976e+003  8.000000e+002
      vertex -1.024120e+004  5.400000e+003  2.200000e+003
    endloop
  endfacet
  facet normal  1.000000e+000  0.000000e+000  0.000000e+000
    outer loop
      vertex -1.024120e+004  5.400000e+003  2.200000e+003
      vertex -1.024120e+004 -1.439976e+003  8.000000e+002
      vertex -1.024120e+004 -7.000000e+002  8.000000e+002
    endloop
  endfacet
  facet normal  1.000000e+000  -0.000000e+000  0.000000e+000
    outer loop
      vertex -1.024120e+004  5.400000e+003  2.200000e+003
      vertex -1.024120e+004 -7.000000e+002  8.000000e+002
      vertex -1.024120e+004  5.400000e+003  0.000000e+000
    endloop
  endfacet
  facet normal  1.000000e+000  0.000000e+000  0.000000e+000
    outer loop
      vertex -1.024120e+004  5.400000e+003  0.000000e+000
      vertex -1.024120e+004 -7.000000e+002  8.000000e+002
      vertex -1.024120e+004 -7.000000e+002  0.000000e+000
    endloop
  endfacet
  facet normal -1.000000e+000  -0.000000e+000  0.000000e+000
    outer loop
      vertex -1.029120e+004 -1.439976e+003  2.200000e+003
      vertex -1.029120e+004  5.400000e+003  2.200000e+003
      vertex -1.029120e+004 -1.439976e+003  8.000000e+002
    endloop
  endfacet
  facet normal -1.000000e+000  0.000000e+000  0.000000e+000
    outer loop
      vertex -1.029120e+004 -1.439976e+003  8.000000e+002
      vertex -1.029120e+004  5.400000e+003  2.200000e+003
      vertex -1.029120e+004 -7.000000e+002  8.000000e+002
    endloop
  endfacet
  facet normal -1.000000e+000  0.000000e+000  0.000000e+000
    outer loop
      vertex -1.029120e+004  5.400000e+003  2.200000e+003
      vertex -1.029120e+004  5.400000e+003  0.000000e+000
      vertex -1.029120e+004 -7.000000e+002  8.000000e+002
    endloop
  endfacet
  facet normal -1.000000e+000  0.000000e+000  0.000000e+000
    outer loop
      vertex -1.029120e+004 -7.000000e+002  8.000000e+002
      vertex -1.029120e+004  5.400000e+003  0.000000e+000
      vertex -1.029120e+004 -7.000000e+002  0.000000e+000
    endloop
  endfacet
  facet normal  0.000000e+000 -1.000000e+000  0.000000e+000
    outer loop
      vertex -1.029120e+004 -7.000000e+002  8.000000e+002
      vertex -1.029120e+004 -7.000000e+002  0.000000e+000
      vertex -1.024120e+004 -7.000000e+002  8.000000e+002
    endloop
  endfacet
  facet normal  0.000000e+000 -1.000000e+000  -0.000000e+000
    outer loop
      vertex -1.024120e+004 -7.000000e+002  8.000000e+002
      vertex -1.029120e+004 -7.000000e+002  0.000000e+000
      vertex -1.024120e+004 -7.000000e+002  0.000000e+000
    endloop
  endfacet
  facet normal  -0.000000e+000  0.000000e+000 -1.000000e+000
    outer loop
      vertex -1.029120e+004 -7.000000e+002  8.000000e+002
      vertex -1.024120e+004 -7.000000e+002  8.000000e+002
      vertex -1.029120e+004 -1.439976e+003  8.000000e+002
    endloop
  endfacet
  facet normal  0.000000e+000  0.000000e+000 -1.000000e+000
    outer loop
      vertex -1.029120e+004 -1.439976e+003  8.000000e+002
      vertex -1.024120e+004 -7.000000e+002  8.000000e+002
      vertex -1.024120e+004 -1.439976e+003  8.000000e+002
    endloop
  endfacet
endsolid CATIA STL
