solid CATIA STL
  facet normal -9.999999e-001  0.000000e+000  0.000000e+000
    outer loop
      vertex -9.890000e+003 -7.070000e+002  0.000000e+000
      vertex -9.890000e+003 -7.070000e+002  4.850000e+002
      vertex -9.890000e+003  7.070000e+002  0.000000e+000
    endloop
  endfacet
  facet normal -9.999999e-001  0.000000e+000  0.000000e+000
    outer loop
      vertex -9.890000e+003  7.070000e+002  0.000000e+000
      vertex -9.890000e+003 -7.070000e+002  4.850000e+002
      vertex -9.890000e+003  7.070000e+002  4.850000e+002
    endloop
  endfacet
  facet normal  9.999999e-001  0.000000e+000  0.000000e+000
    outer loop
      vertex  9.500000e+002 -7.070000e+002  0.000000e+000
      vertex  9.500000e+002  7.070000e+002  0.000000e+000
      vertex  9.500000e+002 -7.070000e+002  4.850000e+002
    endloop
  endfacet
  facet normal  9.999999e-001  -0.000000e+000  0.000000e+000
    outer loop
      vertex  9.500000e+002 -7.070000e+002  4.850000e+002
      vertex  9.500000e+002  7.070000e+002  0.000000e+000
      vertex  9.500000e+002  7.070000e+002  4.850000e+002
    endloop
  endfacet
  facet normal  0.000000e+000  0.000000e+000 -1.000000e+000
    outer loop
      vertex  9.500000e+002 -7.070000e+002  0.000000e+000
      vertex -9.890000e+003 -7.070000e+002  0.000000e+000
      vertex  9.500000e+002  7.070000e+002  0.000000e+000
    endloop
  endfacet
  facet normal  -0.000000e+000  0.000000e+000 -1.000000e+000
    outer loop
      vertex  9.500000e+002  7.070000e+002  0.000000e+000
      vertex -9.890000e+003 -7.070000e+002  0.000000e+000
      vertex -9.890000e+003  7.070000e+002  0.000000e+000
    endloop
  endfacet
  facet normal  0.000000e+000 -1.000000e+000  -0.000000e+000
    outer loop
      vertex  9.500000e+002 -7.070000e+002  0.000000e+000
      vertex  9.500000e+002 -7.070000e+002  4.850000e+002
      vertex -9.890000e+003 -7.070000e+002  0.000000e+000
    endloop
  endfacet
  facet normal  0.000000e+000 -1.000000e+000  0.000000e+000
    outer loop
      vertex -9.890000e+003 -7.070000e+002  0.000000e+000
      vertex  9.500000e+002 -7.070000e+002  4.850000e+002
      vertex -9.890000e+003 -7.070000e+002  4.850000e+002
    endloop
  endfacet
  facet normal  -0.000000e+000  0.000000e+000  1.000000e+000
    outer loop
      vertex  9.500000e+002  7.070000e+002  4.850000e+002
      vertex -9.890000e+003  7.070000e+002  4.850000e+002
      vertex  9.500000e+002 -7.070000e+002  4.850000e+002
    endloop
  endfacet
  facet normal  0.000000e+000  0.000000e+000  1.000000e+000
    outer loop
      vertex  9.500000e+002 -7.070000e+002  4.850000e+002
      vertex -9.890000e+003  7.070000e+002  4.850000e+002
      vertex -9.890000e+003 -7.070000e+002  4.850000e+002
    endloop
  endfacet
  facet normal  0.000000e+000  1.000000e+000  -0.000000e+000
    outer loop
      vertex  9.500000e+002  7.070000e+002  4.850000e+002
      vertex  9.500000e+002  7.070000e+002  0.000000e+000
      vertex -9.890000e+003  7.070000e+002  4.850000e+002
    endloop
  endfacet
  facet normal  0.000000e+000  1.000000e+000  0.000000e+000
    outer loop
      vertex -9.890000e+003  7.070000e+002  4.850000e+002
      vertex  9.500000e+002  7.070000e+002  0.000000e+000
      vertex -9.890000e+003  7.070000e+002  0.000000e+000
    endloop
  endfacet
  facet normal  0.000000e+000  0.000000e+000  9.999999e-001
    outer loop
      vertex -2.000000e+002 -1.750000e+003  7.000000e+002
      vertex  5.000000e+002 -1.750000e+003  7.000000e+002
      vertex -2.000000e+002 -1.450000e+003  7.000000e+002
    endloop
  endfacet
  facet normal  -0.000000e+000  0.000000e+000  9.999999e-001
    outer loop
      vertex -2.000000e+002 -1.450000e+003  7.000000e+002
      vertex  5.000000e+002 -1.750000e+003  7.000000e+002
      vertex  5.000000e+002 -1.450000e+003  7.000000e+002
    endloop
  endfacet
  facet normal  0.000000e+000  0.000000e+000 -9.999999e-001
    outer loop
      vertex -2.000000e+002 -1.750000e+003  0.000000e+000
      vertex -2.000000e+002 -1.450000e+003  0.000000e+000
      vertex  5.000000e+002 -1.750000e+003  0.000000e+000
    endloop
  endfacet
  facet normal  0.000000e+000  0.000000e+000 -9.999999e-001
    outer loop
      vertex  5.000000e+002 -1.750000e+003  0.000000e+000
      vertex -2.000000e+002 -1.450000e+003  0.000000e+000
      vertex  5.000000e+002 -1.450000e+003  0.000000e+000
    endloop
  endfacet
  facet normal  9.999999e-001  0.000000e+000  0.000000e+000
    outer loop
      vertex  5.000000e+002 -1.450000e+003  0.000000e+000
      vertex  5.000000e+002 -1.450000e+003  7.000000e+002
      vertex  5.000000e+002 -1.750000e+003  0.000000e+000
    endloop
  endfacet
  facet normal  9.999999e-001  0.000000e+000  0.000000e+000
    outer loop
      vertex  5.000000e+002 -1.750000e+003  0.000000e+000
      vertex  5.000000e+002 -1.450000e+003  7.000000e+002
      vertex  5.000000e+002 -1.750000e+003  7.000000e+002
    endloop
  endfacet
  facet normal  0.000000e+000 -1.000000e+000  -0.000000e+000
    outer loop
      vertex  5.000000e+002 -1.750000e+003  0.000000e+000
      vertex  5.000000e+002 -1.750000e+003  7.000000e+002
      vertex -2.000000e+002 -1.750000e+003  0.000000e+000
    endloop
  endfacet
  facet normal  0.000000e+000 -1.000000e+000  0.000000e+000
    outer loop
      vertex -2.000000e+002 -1.750000e+003  0.000000e+000
      vertex  5.000000e+002 -1.750000e+003  7.000000e+002
      vertex -2.000000e+002 -1.750000e+003  7.000000e+002
    endloop
  endfacet
  facet normal -9.999999e-001  0.000000e+000  0.000000e+000
    outer loop
      vertex -2.000000e+002 -1.750000e+003  0.000000e+000
      vertex -2.000000e+002 -1.750000e+003  7.000000e+002
      vertex -2.000000e+002 -1.450000e+003  0.000000e+000
    endloop
  endfacet
  facet normal -9.999999e-001  0.000000e+000  0.000000e+000
    outer loop
      vertex -2.000000e+002 -1.450000e+003  0.000000e+000
      vertex -2.000000e+002 -1.750000e+003  7.000000e+002
      vertex -2.000000e+002 -1.450000e+003  7.000000e+002
    endloop
  endfacet
  facet normal  0.000000e+000  1.000000e+000  0.000000e+000
    outer loop
      vertex -2.000000e+002 -1.450000e+003  0.000000e+000
      vertex -2.000000e+002 -1.450000e+003  7.000000e+002
      vertex  5.000000e+002 -1.450000e+003  0.000000e+000
    endloop
  endfacet
  facet normal  0.000000e+000  1.000000e+000  -0.000000e+000
    outer loop
      vertex  5.000000e+002 -1.450000e+003  0.000000e+000
      vertex -2.000000e+002 -1.450000e+003  7.000000e+002
      vertex  5.000000e+002 -1.450000e+003  7.000000e+002
    endloop
  endfacet
  facet normal -9.999999e-001  0.000000e+000  0.000000e+000
    outer loop
      vertex -1.047000e+004 -1.440000e+003  1.802656e-011
      vertex -1.047000e+004 -1.440000e+003  7.400000e+002
      vertex -1.047000e+004 -7.400000e+002  2.501110e-012
    endloop
  endfacet
  facet normal -9.999999e-001  0.000000e+000  0.000000e+000
    outer loop
      vertex -1.047000e+004 -7.400000e+002  2.501110e-012
      vertex -1.047000e+004 -1.440000e+003  7.400000e+002
      vertex -1.047000e+004 -7.400000e+002  7.400000e+002
    endloop
  endfacet
  facet normal  9.999999e-001  0.000000e+000  0.000000e+000
    outer loop
      vertex  1.530000e+003 -1.440000e+003  1.802656e-011
      vertex  1.530000e+003 -7.400000e+002  2.501110e-012
      vertex  1.530000e+003 -1.440000e+003  7.400000e+002
    endloop
  endfacet
  facet normal  9.999999e-001  -0.000000e+000  0.000000e+000
    outer loop
      vertex  1.530000e+003 -1.440000e+003  7.400000e+002
      vertex  1.530000e+003 -7.400000e+002  2.501110e-012
      vertex  1.530000e+003 -7.400000e+002  7.400000e+002
    endloop
  endfacet
  facet normal  0.000000e+000 -2.217921e-014 -1.000000e+000
    outer loop
      vertex  1.530000e+003 -1.440000e+003  1.802656e-011
      vertex -1.047000e+004 -1.440000e+003  1.802656e-011
      vertex  1.530000e+003 -7.400000e+002  2.501110e-012
    endloop
  endfacet
  facet normal  -0.000000e+000 -2.217921e-014 -1.000000e+000
    outer loop
      vertex  1.530000e+003 -7.400000e+002  2.501110e-012
      vertex -1.047000e+004 -1.440000e+003  1.802656e-011
      vertex -1.047000e+004 -7.400000e+002  2.501110e-012
    endloop
  endfacet
  facet normal  0.000000e+000 -1.000000e+000  -0.000000e+000
    outer loop
      vertex  1.530000e+003 -1.440000e+003  1.802656e-011
      vertex  1.530000e+003 -1.440000e+003  7.400000e+002
      vertex -1.047000e+004 -1.440000e+003  1.802656e-011
    endloop
  endfacet
  facet normal  0.000000e+000 -1.000000e+000  0.000000e+000
    outer loop
      vertex -1.047000e+004 -1.440000e+003  1.802656e-011
      vertex  1.530000e+003 -1.440000e+003  7.400000e+002
      vertex -1.047000e+004 -1.440000e+003  7.400000e+002
    endloop
  endfacet
  facet normal  -0.000000e+000  0.000000e+000  1.000000e+000
    outer loop
      vertex  1.530000e+003 -7.400000e+002  7.400000e+002
      vertex -1.047000e+004 -7.400000e+002  7.400000e+002
      vertex  1.530000e+003 -1.440000e+003  7.400000e+002
    endloop
  endfacet
  facet normal  0.000000e+000  0.000000e+000  1.000000e+000
    outer loop
      vertex  1.530000e+003 -1.440000e+003  7.400000e+002
      vertex -1.047000e+004 -7.400000e+002  7.400000e+002
      vertex -1.047000e+004 -1.440000e+003  7.400000e+002
    endloop
  endfacet
  facet normal  0.000000e+000  1.000000e+000  -0.000000e+000
    outer loop
      vertex  1.530000e+003 -7.400000e+002  7.400000e+002
      vertex  1.530000e+003 -7.400000e+002  2.501110e-012
      vertex -1.047000e+004 -7.400000e+002  7.400000e+002
    endloop
  endfacet
  facet normal  0.000000e+000  1.000000e+000  0.000000e+000
    outer loop
      vertex -1.047000e+004 -7.400000e+002  7.400000e+002
      vertex  1.530000e+003 -7.400000e+002  2.501110e-012
      vertex -1.047000e+004 -7.400000e+002  2.501110e-012
    endloop
  endfacet
endsolid CATIA STL
